#N canvas 309 231 277 170 10;
#X obj 16 -49 inlet;
#X obj 146 11 cc_any;
#X obj 19 9 cc_any;
#X obj 19 31 outlet previous;
#X obj 16 -27 t a b;
#X obj 146 33 outlet next;
#X connect 0 0 4 0;
#X connect 1 0 2 1;
#X connect 1 0 5 0;
#X connect 2 0 3 0;
#X connect 4 0 1 0;
#X connect 4 1 2 0;
