#N canvas 624 40 367 281 10;
#X obj 81 23 inlet;
#X obj 81 78 cc_indexList \$2;
#X obj 81 164 cc_any;
#X obj 81 186 outlet;
#X obj 81 45 t a a, f 6;
#X obj 81 100 cc_equalToSymbol \$1;
#X obj 168 20 inlet;
#X obj 221 22 inlet;
#X text 41 239 comment;
#X obj 81 122 sel 0;
#X text 36 212 block message only if it is equal to;
#X connect 0 0 4 0;
#X connect 1 0 5 0;
#X connect 2 0 3 0;
#X connect 4 0 1 0;
#X connect 4 1 2 1;
#X connect 5 0 9 0;
#X connect 6 0 5 1;
#X connect 7 0 1 1;
#X connect 9 0 2 0;
