#N canvas 143 238 420 247 10;
#X obj 64 95 f;
#X obj 103 95 f;
#X floatatom 64 36 5 0 0 0 - - -, f 5;
#X obj 64 55 t f b;
#X obj 64 117 ==;
#X obj 64 144 tgl 15 0 empty empty empty 17 7 0 10 -262144 -1 -1 1
1;
#X obj 63 6 inlet;
#X obj 64 164 outlet;
#X text 7 186 test if current number is equal to previous;
#X obj 116 163 outlet previous;
#X obj 136 9 loadbang;
#X obj 136 31 f \$1;
#X obj 136 53 t f f;
#X text 168 30 comment;
#X connect 0 0 1 1;
#X connect 0 0 4 0;
#X connect 1 0 4 1;
#X connect 1 0 9 0;
#X connect 2 0 3 0;
#X connect 3 0 0 0;
#X connect 3 1 1 0;
#X connect 4 0 5 0;
#X connect 5 0 7 0;
#X connect 6 0 2 0;
#X connect 10 0 11 0;
#X connect 11 0 12 0;
