#N canvas 449 199 342 281 10;
#X obj 66 76 cc_dropNth 0;
#X obj 21 119 list trim;
#X text 13 175 first argument takes n subsequent list elements after
selector has been found.;
#X obj 21 51 route \$1;
#X obj 21 14 inlet;
#X obj 21 148 outlet;
#X obj 21 97 list split \$2;
#X connect 0 0 3 0;
#X connect 1 0 5 0;
#X connect 3 0 6 0;
#X connect 3 1 0 0;
#X connect 4 0 3 0;
#X connect 6 0 1 0;
