#N canvas 775 60 508 493 10;
#X obj 21 136 *~ 0.2;
#X obj 22 -108 openpanel;
#X obj 22 -145 bng 24 250 50 0 empty empty load_seq_text_file 28 7
1 10 -4034 -1 -1;
#X obj 22 -66 symbol;
#X msg 33 -87 bang;
#X text 15 231 Also see:;
#X obj 92 229 qlist;
#X floatatom 52 17 5 0 0 0 - - -, f 5;
#X obj 108 17 bng 15 250 50 0 empty empty done 17 7 1 10 -262144 -1
-1;
#X msg 228 -53 rewind;
#X msg 227 -28 next;
#X text 274 -56 go to beginning (and stop);
#X text 270 -28 single-step forward;
#X msg 225 27 clear;
#X text 272 18 empty the qlist;
#X msg 227 -2 next 1;
#N canvas 0 22 461 311 parse 0;
#X obj 130 152 list trim;
#X obj 130 178 route noteon noteoff;
#X obj 90 122 list split 1;
#X text 60 33 split off channel. Alternatively use [route <channelnum>]
;
#X obj 198 208 print NOTEOFF;
#X msg 149 209 \$1 0;
#X obj 90 93 inlet;
#X obj 130 255 outlet;
#X connect 0 0 1 0;
#X connect 1 0 7 0;
#X connect 1 1 4 0;
#X connect 1 1 5 0;
#X connect 2 1 0 0;
#X connect 6 0 2 0;
#X restore 22 77 pd parse;
#X msg 22 -43 open \$1;
#X obj 88 -45 r \$0-commands;
#X obj 171 61 s \$0-commands;
#N canvas 0 22 738 408 seq-conversion 0;
#X obj 394 248 import cyclone;
#X obj 79 275 seq;
#X msg 183 199 read \$1 \, rewind;
#X msg 79 199 write \$1.txt;
#X obj 79 113 openpanel;
#X obj 79 76 bng 24 250 50 0 empty empty load_seq_midi_file 28 7 1
10 -4034 -1 -1;
#X obj 79 155 t a a;
#X symbolatom 88 136 64 0 0 0 - - -, f 64;
#X text 389 274 [seq] is part of Cyclone in Pd-extendend;
#X text 55 26 Here's how you can convert a midi file to a seq-textfile
usable in c_seqplay:;
#X text 55 314 Explanation: [seq] saves as textfile \, if you use a
"write"-file ending in ".txt".;
#X connect 2 0 1 0;
#X connect 3 0 1 0;
#X connect 4 0 6 0;
#X connect 4 0 7 0;
#X connect 5 0 4 0;
#X connect 6 0 3 0;
#X connect 6 1 2 0;
#X restore 209 -117 pd seq-conversion;
#X text 276 -12 single-step forward;
#X text 275 1 SUPRESSING MESSAGE-SENDING;
#X obj 21 185 dac~;
#X obj 204 104 list prepend set;
#X obj 204 126 list trim;
#X msg 204 148 0 noteoff 69 64;
#X text 205 -137 Start here v;
#X msg 192 234 \; pd dsp 1;
#X obj 194 211 loadbang;
#X obj 339 256 cc_delayList;
#X msg 332 191 hola;
#X msg 350 167 daniel;
#X obj 339 278 cc_setMessage;
#X msg 339 300 daniel;
#X obj 22 -11 cc_seqplay;
#X obj 22 104 u_makepoly 12 1 s_rhodey;
#X connect 0 0 23 0;
#X connect 0 0 23 1;
#X connect 1 0 3 0;
#X connect 2 0 1 0;
#X connect 3 0 17 0;
#X connect 4 0 3 0;
#X connect 9 0 19 0;
#X connect 10 0 19 0;
#X connect 13 0 19 0;
#X connect 15 0 19 0;
#X connect 16 0 36 0;
#X connect 17 0 35 0;
#X connect 18 0 35 0;
#X connect 24 0 25 0;
#X connect 25 0 26 0;
#X connect 29 0 28 0;
#X connect 30 0 33 0;
#X connect 31 0 30 0;
#X connect 32 0 30 0;
#X connect 33 0 34 0;
#X connect 35 0 16 0;
#X connect 35 0 24 0;
#X connect 35 1 7 0;
#X connect 35 2 8 0;
#X connect 36 0 0 0;
