#N canvas 700 108 520 392 10;
#X obj 198 166 list split 1;
#X obj 134 343 outlet;
#X text 191 243 now we have: time RECEIVER channel <command> <data>
;
#X obj 134 271 list prepend add;
#X obj 134 295 list trim;
#X obj 134 318 qlist;
#X obj 186 343 outlet;
#X obj 35 293 r \$0-qlist;
#X obj 35 344 outlet;
#X obj 153 28 inlet;
#X obj 28 265 r \$0-qlist-ctl;
#X text 246 267 add just inserts a new message to qlist;
#N canvas 838 117 318 355 readMidiTextFile 0;
#X obj 36 -68 textfile;
#X obj 36 -98 until;
#X msg 88 -96 read \$1 \, rewind;
#X obj 36 -136 t b a b;
#X obj 82 -216 loadbang;
#X obj 82 -192 list append \$1;
#X obj 82 -170 select 0;
#X obj 36 -289 list trim;
#X obj 36 -266 route open;
#X obj 36 -183 list;
#X obj 103 -245 s \$0-qlist-ctl;
#X obj 34 -317 inlet;
#X obj 36 -29 outlet;
#X obj 124 -19 outlet;
#X connect 0 0 12 0;
#X connect 0 1 1 1;
#X connect 1 0 0 0;
#X connect 2 0 0 0;
#X connect 3 0 1 0;
#X connect 3 1 2 0;
#X connect 3 2 13 0;
#X connect 4 0 5 0;
#X connect 5 0 6 0;
#X connect 6 1 3 0;
#X connect 7 0 8 0;
#X connect 8 0 9 0;
#X connect 8 1 10 0;
#X connect 9 0 3 0;
#X connect 11 0 7 0;
#X restore 153 57 pd readMidiTextFile;
#N canvas 752 330 450 300 algorithm 0;
#X text 32 14 If midicommand is noteon and velocity is zero don't prepend
any delay value to qlist. this means automatically output.;
#X text 29 58 If channel of present line is equal to previous line
then don't add any delay value to qlist message. BEcause a chord is
being played.;
#X text 29 108 If midicommand is different form a noteon then output
automatically.;
#X restore 266 322 pd algorithm;
#X obj 198 190 list append \$0-qlist;
#X text 168 96 (Maybe time) <midicommand> <data>;
#X obj 153 112 route ch;
#X obj 134 141 list prepend \$0-qlist;
#X obj 198 213 list append;
#X connect 0 0 14 0;
#X connect 0 1 18 1;
#X connect 3 0 4 0;
#X connect 4 0 5 0;
#X connect 5 0 1 0;
#X connect 5 1 6 0;
#X connect 7 0 8 0;
#X connect 9 0 12 0;
#X connect 10 0 5 0;
#X connect 12 0 16 0;
#X connect 14 0 18 0;
#X connect 16 0 17 0;
#X connect 16 1 0 0;
#X connect 17 0 3 0;
#X connect 18 0 3 0;
