#N canvas 604 86 457 510 10;
#X obj 21 136 *~ 0.2;
#X obj 22 -108 openpanel;
#X obj 22 -145 bng 24 250 50 0 empty empty load_seq_text_file 28 7
1 10 -4034 -1 -1;
#X obj 22 -66 symbol;
#X msg 33 -87 bang;
#X floatatom 52 17 5 0 0 0 - - -, f 5;
#X obj 108 17 bng 15 250 50 0 empty empty done 17 7 1 10 -262144 -1
-1;
#X msg 228 -53 rewind;
#X msg 227 -28 next;
#X text 274 -56 go to beginning (and stop);
#X text 270 -28 single-step forward;
#X msg 225 27 clear;
#X text 272 18 empty the qlist;
#X msg 227 -2 next 1;
#N canvas 432 25 461 311 parse 0;
#X obj 124 150 list trim;
#X obj 124 176 route noteon noteoff;
#X text 60 33 split off channel. Alternatively use [route <channelnum>]
;
#X obj 192 206 print NOTEOFF;
#X msg 143 207 \$1 0;
#X obj 90 93 inlet;
#X obj 124 253 outlet;
#X obj 90 122 list split 2;
#X connect 0 0 1 0;
#X connect 1 0 6 0;
#X connect 1 1 3 0;
#X connect 1 1 4 0;
#X connect 4 0 6 0;
#X connect 5 0 7 0;
#X connect 7 1 0 0;
#X restore 22 77 pd parse;
#X msg 22 -43 open \$1;
#X obj 88 -45 r \$0-commands;
#X obj 171 61 s \$0-commands;
#X text 276 -12 single-step forward;
#X text 275 1 SUPRESSING MESSAGE-SENDING;
#X obj 21 185 dac~;
#X obj 204 104 list prepend set;
#X obj 204 126 list trim;
#X msg 204 148 0 noteoff 40 64;
#X msg 192 234 \; pd dsp 1;
#X obj 194 211 loadbang;
#X obj 22 104 u_makepoly 12 1 s_rhodey;
#N canvas 0 22 425 170 notes 0;
#X text 7 9 Conversion from midi to text file is done previously with
the executable called midi2Text.;
#X text 13 48 Just run this on terminal: ./midi2Text filename.mid or
just: ./midi2Text to get a more interactive program.;
#X restore 236 -116 pd notes;
#X obj 22 -11 hs_seqplay;
#X connect 0 0 20 0;
#X connect 0 0 20 1;
#X connect 1 0 3 0;
#X connect 2 0 1 0;
#X connect 3 0 15 0;
#X connect 4 0 3 0;
#X connect 7 0 17 0;
#X connect 8 0 17 0;
#X connect 11 0 17 0;
#X connect 13 0 17 0;
#X connect 14 0 26 0;
#X connect 15 0 28 0;
#X connect 16 0 28 0;
#X connect 21 0 22 0;
#X connect 22 0 23 0;
#X connect 25 0 24 0;
#X connect 26 0 0 0;
#X connect 28 0 14 0;
#X connect 28 0 21 0;
#X connect 28 1 5 0;
#X connect 28 2 6 0;
