#N canvas 156 59 605 403 10;
#X obj 99 242 spigot;
#X floatatom 263 216 5 0 0 0 - - -, f 5;
#X obj 150 122 % 2;
#X floatatom 150 144 5 0 0 0 - - -, f 5;
#X obj 263 194 % 2;
#X floatatom 165 99 5 0 0 0 - - -, f 5;
#X obj 261 161 + 1;
#X obj 264 241 tgl 15 0 empty empty empty 17 7 0 10 -262144 -1 -1 1
1;
#X obj 151 166 tgl 15 0 empty empty empty 17 7 0 10 -262144 -1 -1 0
1;
#X obj 169 291 spigot;
#X obj 69 5 inlet left;
#X obj 70 34 t a b;
#X obj 277 3 inlet control;
#X obj 166 76 f;
#X obj 142 322 outlet;
#X obj 70 77 s \$0-left;
#X obj 13 132 r \$0-left;
#X obj 277 30 clip 0 1;
#X obj 169 257 symbol \$1;
#X obj 169 227 sel 1;
#X obj 27 205 list append \$1;
#X obj 264 261 t f f;
#X text 305 263 comment;
#X connect 0 0 14 0;
#X connect 1 0 7 0;
#X connect 2 0 3 0;
#X connect 3 0 8 0;
#X connect 4 0 1 0;
#X connect 5 0 2 0;
#X connect 5 0 6 0;
#X connect 6 0 4 0;
#X connect 7 0 21 0;
#X connect 8 0 0 1;
#X connect 9 0 14 0;
#X connect 10 0 11 0;
#X connect 11 0 15 0;
#X connect 11 1 13 0;
#X connect 12 0 17 0;
#X connect 13 0 5 0;
#X connect 16 0 20 0;
#X connect 17 0 13 0;
#X connect 18 0 9 0;
#X connect 19 0 18 0;
#X connect 20 0 0 0;
#X connect 21 0 9 1;
#X connect 21 1 19 0;
